<svg width="64" height="64" viewBox="0 0 64 64" fill="none" xmlns="http://www.w3.org/2000/svg">
<path d="M28.5782 52.215L28.5781 52.215L12.3906 34.768C12.25 34.617 12.0551 34.528 11.8489 34.5205C11.6429 34.5131 11.4423 34.5876 11.2912 34.7278C11.291 34.728 11.2909 34.7281 11.2907 34.7282L8.51423 37.3231C8.514 37.3233 8.51377 37.3236 8.51354 37.3238C8.36261 37.4662 8.27385 37.6624 8.26653 37.8698C8.25919 38.0775 8.33412 38.2797 8.47502 38.4325C8.47503 38.4325 8.47505 38.4325 8.47506 38.4325L24.6555 55.8801C24.6555 55.8801 24.6556 55.8801 24.6556 55.8802C24.7251 55.955 24.8087 56.0153 24.9015 56.0578C24.9944 56.1003 25.0948 56.124 25.1969 56.1277C25.2989 56.1314 25.4008 56.1149 25.4965 56.0793C25.592 56.0437 25.6796 55.9896 25.7543 55.9202C25.7544 55.9201 25.7545 55.9199 25.7547 55.9198L28.5378 53.3222L28.5782 52.215ZM28.5782 52.215C28.869 52.5284 28.8517 53.0282 28.5382 53.3218L28.5782 52.215ZM22.6245 57.7787C22.6242 57.7785 22.624 57.7783 22.6238 57.778L6.43955 40.3343C6.37 40.2595 6.2864 40.1992 6.19351 40.1567C6.10062 40.1142 6.00027 40.0904 5.8982 40.0867C5.79612 40.083 5.69432 40.0995 5.5986 40.1352C5.50301 40.1708 5.41537 40.2249 5.34067 40.2943L22.6245 57.7787ZM22.6245 57.7787C22.765 57.9314 22.8397 58.1334 22.8324 58.3408C22.8251 58.5482 22.7363 58.7443 22.5854 58.8867C22.5852 58.887 22.5849 58.8872 22.5847 58.8875L19.8069 61.4849C19.8066 61.4851 19.8064 61.4854 19.8061 61.4856C19.655 61.6256 19.4546 61.7001 19.2487 61.6926C19.0427 61.6852 18.848 61.5963 18.7074 61.4456C18.7073 61.4454 18.7071 61.4453 18.707 61.4452L2.51817 43.9982C2.51796 43.998 2.51775 43.9978 2.51754 43.9975C2.37712 43.8447 2.30255 43.6427 2.31002 43.4353C2.31749 43.2278 2.40645 43.0317 2.55757 42.8893C2.55776 42.8892 2.55794 42.889 2.55813 42.8888L5.34038 40.2946L22.6245 57.7787ZM55.5378 25.5721C55.5377 25.5719 55.5375 25.5717 55.5373 25.5715L39.3572 8.12303C39.2878 8.04829 39.2043 7.98796 39.1115 7.94551C39.0188 7.90306 38.9185 7.87931 38.8166 7.87562C38.7146 7.87194 38.613 7.88838 38.5174 7.92402C38.422 7.9596 38.3345 8.0136 38.2599 8.08295L55.5378 25.5721ZM55.5378 25.5721C55.6782 25.725 55.7527 25.9271 55.7451 26.1346C55.7374 26.342 55.6484 26.538 55.4973 26.6802C55.497 26.6804 55.4968 26.6807 55.4966 26.6809L52.7155 29.2777C52.7153 29.2779 52.7152 29.278 52.715 29.2782C52.5637 29.4186 52.363 29.4933 52.1568 29.486C51.9507 29.4787 51.7558 29.39 51.6149 29.2395C51.6147 29.2392 51.6144 29.239 51.6142 29.2387L35.4315 11.7954C35.2905 11.6428 35.2155 11.4406 35.2228 11.233C35.2301 11.0254 35.3191 10.8292 35.4704 10.6869C35.4705 10.6868 35.4706 10.6868 35.4707 10.6867L38.2595 8.08333L55.5378 25.5721ZM61.4821 20.0168C61.4819 20.0166 61.4816 20.0163 61.4814 20.0161L45.3013 2.55993C45.232 2.48528 45.1487 2.42503 45.0561 2.38265C44.9635 2.34027 44.8634 2.3166 44.7616 2.31299C44.6599 2.30937 44.5584 2.3259 44.463 2.3616C44.3677 2.39728 44.2804 2.45141 44.206 2.5209L61.4821 20.0168ZM61.4821 20.0168C61.6225 20.17 61.6971 20.3723 61.6896 20.5801C61.6821 20.788 61.5931 20.9846 61.4418 21.1273C61.4417 21.1274 61.4415 21.1275 61.4414 21.1276L58.6657 23.723C58.5911 23.7926 58.5035 23.8468 58.4079 23.8825C58.3124 23.9182 58.2107 23.9347 58.1088 23.9311C58.0068 23.9275 57.9066 23.9038 57.8138 23.8614C57.721 23.819 57.6375 23.7588 57.568 23.6841L41.3881 6.23331C41.388 6.2332 41.3879 6.23309 41.3878 6.23298C41.2471 6.07981 41.1722 5.87738 41.1796 5.66947C41.1869 5.46183 41.2756 5.26541 41.4264 5.12259C41.4267 5.12231 41.427 5.12202 41.4273 5.12173L44.2058 2.52106L61.4821 20.0168ZM43.2828 24.9458C43.283 24.946 43.2832 24.9462 43.2834 24.9464C43.4238 25.0992 43.4984 25.3013 43.491 25.5087C43.4835 25.7162 43.3945 25.9124 43.2433 26.0548C43.2432 26.0549 43.243 26.0551 43.2428 26.0552L25.7474 42.3988C25.7473 42.3989 25.7472 42.399 25.7472 42.399C25.596 42.5394 25.3953 42.614 25.1892 42.6065C24.9833 42.5991 24.7887 42.5104 24.6482 42.3598C24.6479 42.3596 24.6477 42.3593 24.6475 42.3591L20.4727 37.8542C20.4727 37.8542 20.4727 37.8541 20.4726 37.8541C20.3319 37.7012 20.2571 37.499 20.2646 37.2913C20.2721 37.0837 20.3611 36.8875 20.5123 36.7452C20.5125 36.745 20.5126 36.7449 20.5127 36.7448L38.0048 20.4008C38.0794 20.3312 38.1671 20.2771 38.2627 20.2415C38.3582 20.2058 38.4599 20.1894 38.5619 20.1931C38.6638 20.1968 38.764 20.2205 38.8568 20.263C38.9496 20.3054 39.033 20.3657 39.1025 20.4405L43.2828 24.9458Z" stroke="#0E293B"/>
</svg>
